<?xml version="1.0" encoding="UTF-8"?>
<svg xmlns="http://www.w3.org/2000/svg" xmlns:xlink="http://www.w3.org/1999/xlink" width="50px" height="50px" viewBox="0 0 50 50" version="1.1">
<g id="surface1">
<path style=" stroke:none;fill-rule:nonzero;fill:rgb(17.254902%,66.27451%,73.72549%);fill-opacity:1;" d="M 42.609375 47.371094 C 35.289062 44.941406 30.851562 37.515625 32.1875 29.917969 L 34.230469 17.652344 C 34.660156 15.027344 36.929688 13.105469 39.589844 13.113281 C 41.589844 13.101562 43.433594 14.195312 44.378906 15.957031 C 46.558594 20.511719 47.609375 25.523438 47.445312 30.566406 C 47.558594 35.605469 47.007812 40.636719 45.800781 45.527344 C 45.648438 46.210938 45.21875 46.804688 44.609375 47.15625 C 44.003906 47.503906 43.277344 47.585938 42.609375 47.371094 Z M 4.210938 45.675781 C 3.003906 40.785156 2.449219 35.753906 2.566406 30.71875 C 2.375 25.621094 3.429688 20.554688 5.632812 15.957031 C 6.578125 14.195312 8.417969 13.101562 10.417969 13.113281 C 13.078125 13.105469 15.351562 15.027344 15.78125 17.652344 L 17.824219 29.917969 C 19.15625 37.515625 14.722656 44.941406 7.402344 47.371094 C 6.738281 47.585938 6.011719 47.507812 5.40625 47.164062 C 4.800781 46.816406 4.367188 46.234375 4.210938 45.550781 Z M 4.210938 45.675781 "/>
<path style="fill:none;stroke-width:2;stroke-linecap:round;stroke-linejoin:round;stroke:rgb(0%,0%,0%);stroke-opacity:1;stroke-miterlimit:4;" d="M 11.999567 2.999567 L 11.999567 5.789893 C 12.0074 8.205773 13.224741 10.458715 15.239541 11.790425 " transform="matrix(2.493268,0,0,2.493268,-4.914232,-4.986536)"/>
<path style="fill:none;stroke-width:2;stroke-linecap:round;stroke-linejoin:round;stroke:rgb(0%,0%,0%);stroke-opacity:1;stroke-miterlimit:4;" d="M 11.999567 2.999567 L 11.999567 5.789893 C 11.991733 8.205773 10.775959 10.458715 8.759592 11.790425 " transform="matrix(2.493268,0,0,2.493268,-4.914232,-4.986536)"/>
<path style="fill:none;stroke-width:2;stroke-linecap:round;stroke-linejoin:round;stroke:rgb(0%,0%,0%);stroke-opacity:1;stroke-miterlimit:4;" d="M 19.060768 20.999598 C 16.124737 20.025099 14.344945 17.046767 14.880762 13.999499 L 15.700156 9.080002 C 15.872495 8.027167 16.782759 7.256341 17.849695 7.259475 C 18.651855 7.254775 19.391346 7.693456 19.770492 8.400046 C 20.644721 10.22684 21.066168 12.23694 21.000366 14.259574 C 21.045801 16.280641 20.824893 18.298575 20.340777 20.260107 C 20.279675 20.534283 20.107336 20.772424 19.862928 20.913429 C 19.620087 21.052867 19.328677 21.085768 19.060768 20.999598 Z M 3.659923 20.319642 C 3.175807 18.35811 2.953333 16.340177 3.000334 14.320676 C 2.923565 12.276108 3.346579 10.244074 4.230208 8.400046 C 4.609354 7.693456 5.347279 7.254775 6.149439 7.259475 C 7.216374 7.256341 8.128205 8.027167 8.300544 9.080002 L 9.119938 13.999499 C 9.654189 17.046767 7.875963 20.025099 4.939932 20.999598 C 4.67359 21.085768 4.38218 21.054433 4.139339 20.916562 C 3.896497 20.777124 3.722592 20.543683 3.659923 20.269507 Z M 3.659923 20.319642 " transform="matrix(2.493268,0,0,2.493268,-4.914232,-4.986536)"/>
</g>
</svg>
