<?xml version="1.0" encoding="utf-8"?><!-- Uploaded to: SVG Repo, www.svgrepo.com, Generator: SVG Repo Mixer Tools -->
<svg fill="#000000" width="800px" height="800px" viewBox="0 0 24 24" id="youtube" data-name="Flat Line" xmlns="http://www.w3.org/2000/svg" class="icon flat-line"><path id="secondary" d="M18.24,5.21C16.76,5.1,14.68,5,12,5s-4.76.1-6.24.21A3,3,0,0,0,3,8.2v7.6a3,3,0,0,0,2.76,3C7.24,18.9,9.32,19,12,19s4.76-.1,6.24-.21a3,3,0,0,0,2.76-3V8.2A3,3,0,0,0,18.24,5.21ZM10,15V9l5,3Z" style="fill: rgb(44, 169, 188); stroke-width: 2;"></path><path id="primary" d="M15,12l-5,3V9Zm6-3.8a3,3,0,0,0-2.76-3C16.75,5.1,14.68,5,12,5s-4.75.1-6.24.21A3,3,0,0,0,3,8.2v7.6a3,3,0,0,0,2.76,3C7.25,18.9,9.32,19,12,19s4.75-.1,6.24-.21a3,3,0,0,0,2.76-3Z" style="fill: none; stroke: rgb(0, 0, 0); stroke-linecap: round; stroke-linejoin: round; stroke-width: 2;"></path></svg>