<?xml version="1.0" encoding="utf-8"?><!-- Uploaded to: SVG Repo, www.svgrepo.com, Generator: SVG Repo Mixer Tools -->
<svg fill="#000000" width="800px" height="800px" viewBox="0 0 24 24" id="price-tag" data-name="Flat Line" xmlns="http://www.w3.org/2000/svg" class="icon flat-line"><path id="secondary" d="M21,10V4a1,1,0,0,0-1-1H14L3.68,13.26a1,1,0,0,0,0,1.41l5.66,5.66a1,1,0,0,0,1.41,0Z" style="fill: rgb(44, 169, 188); stroke-width: 2;"></path><line id="primary-upstroke" x1="16.45" y1="7.5" x2="16.55" y2="7.5" style="fill: none; stroke: rgb(0, 0, 0); stroke-linecap: round; stroke-linejoin: round; stroke-width: 2.5;"></line><path id="primary" d="M21,10V4a1,1,0,0,0-1-1H14L3.68,13.26a1,1,0,0,0,0,1.41l5.66,5.66a1,1,0,0,0,1.41,0Z" style="fill: none; stroke: rgb(0, 0, 0); stroke-linecap: round; stroke-linejoin: round; stroke-width: 2;"></path></svg>