<?xml version="1.0" encoding="UTF-8"?>
<svg xmlns="http://www.w3.org/2000/svg" xmlns:xlink="http://www.w3.org/1999/xlink" width="50px" height="50px" viewBox="0 0 50 50" version="1.1">
<g id="surface1">
<path style=" stroke:none;fill-rule:nonzero;fill:rgb(17.254902%,66.27451%,73.72549%);fill-opacity:1;" d="M 22.917969 10.417969 L 22.917969 39.582031 L 14.582031 31.25 L 8.332031 31.25 C 7.183594 31.25 6.25 30.316406 6.25 29.167969 L 6.25 20.832031 C 6.25 19.683594 7.183594 18.75 8.332031 18.75 L 14.582031 18.75 Z M 22.917969 10.417969 "/>
<path style="fill:none;stroke-width:2;stroke-linecap:round;stroke-linejoin:round;stroke:rgb(0%,0%,0%);stroke-opacity:1;stroke-miterlimit:4;" d="M 18.36 5.64 C 21.87 9.15375 21.87 14.84625 18.36 18.36 " transform="matrix(2.083333,0,0,2.083333,0,0)"/>
<path style="fill:none;stroke-width:2;stroke-linecap:round;stroke-linejoin:round;stroke:rgb(0%,0%,0%);stroke-opacity:1;stroke-miterlimit:4;" d="M 15.54 8.46 C 16.48125 9.3975 17.008125 10.6725 17.008125 12 C 17.008125 13.3275 16.48125 14.6025 15.54 15.54 " transform="matrix(2.083333,0,0,2.083333,0,0)"/>
<path style="fill:none;stroke-width:2;stroke-linecap:round;stroke-linejoin:round;stroke:rgb(0%,0%,0%);stroke-opacity:1;stroke-miterlimit:4;" d="M 11.000625 5.000625 L 11.000625 18.999375 L 6.999375 15 L 3.999375 15 C 3.448125 15 3 14.551875 3 14.000625 L 3 9.999375 C 3 9.448125 3.448125 9 3.999375 9 L 6.999375 9 Z M 11.000625 5.000625 " transform="matrix(2.083333,0,0,2.083333,0,0)"/>
</g>
</svg>
