<?xml version="1.0" encoding="utf-8"?><!-- Uploaded to: SVG Repo, www.svgrepo.com, Generator: SVG Repo Mixer Tools -->
<svg fill="#000000" width="800px" height="800px" viewBox="0 0 24 24" id="target" data-name="Flat Line" xmlns="http://www.w3.org/2000/svg" class="icon flat-line"><path id="secondary" d="M18,3V6h3L18,9H15V6ZM13,14a3,3,0,1,0-3,3A3,3,0,0,0,13,14Z" style="fill: rgb(44, 169, 188); stroke-width: 2;"></path><path id="primary" d="M15,9l-2.8,2.8M15,6V9h3l3-3H18V3Z" style="fill: none; stroke: rgb(0, 0, 0); stroke-linecap: round; stroke-linejoin: round; stroke-width: 2;"></path><path id="primary-2" data-name="primary" d="M16.92,13A5.55,5.55,0,0,1,17,14a7,7,0,1,1-7-7,5.55,5.55,0,0,1,1,.08" style="fill: none; stroke: rgb(0, 0, 0); stroke-linecap: round; stroke-linejoin: round; stroke-width: 2;"></path><circle id="primary-3" data-name="primary" cx="10" cy="14" r="3" style="fill: none; stroke: rgb(0, 0, 0); stroke-linecap: round; stroke-linejoin: round; stroke-width: 2;"></circle></svg>