<?xml version="1.0" encoding="iso-8859-1"?>
<!-- Uploaded to: SVG Repo, www.svgrepo.com, Generator: SVG Repo Mixer Tools -->
<svg height="800px" width="800px" version="1.1" id="Layer_1" xmlns="http://www.w3.org/2000/svg" xmlns:xlink="http://www.w3.org/1999/xlink" 
	 viewBox="0 0 502.835 502.835" xml:space="preserve">
<g transform="translate(1 5)">
	<path style="fill:#FFD0A1;" d="M148.333,75.751v17.067c0,4.267-4.267,8.533-8.533,8.533c0,17.067-8.533,34.133-8.533,34.133
		c-8.533,17.067-17.92,34.133-51.2,34.133s-42.667-17.067-51.2-34.133c0,0-8.533-17.067-8.533-34.133
		c-4.267,0-8.533-4.267-8.533-8.533V75.751c0-4.267,4.267-8.533,8.533-8.533v-8.533c0-23.893,18.773-42.667,42.667-42.667h34.133
		c23.893,0,42.667,18.773,42.667,42.667v8.533C144.067,67.218,148.333,71.484,148.333,75.751z M319,144.018v17.067
		c0,4.267-3.413,8.533-8.533,8.533c0,17.067-8.533,34.133-8.533,34.133c-8.533,17.067-17.92,34.133-51.2,34.133
		s-42.667-17.067-51.2-34.133c0,0-8.533-17.067-8.533-34.133c-5.12,0-8.533-4.267-8.533-8.533v-17.067
		c0-4.267,3.413-8.533,8.533-8.533v-8.533c0-23.893,18.773-42.667,42.667-42.667H267.8c23.893,0,42.667,18.773,42.667,42.667v8.533
		C315.587,135.484,319,139.751,319,144.018z M481.133,75.751v17.067c0,4.267-3.413,8.533-8.533,8.533
		c0,17.067-8.533,34.133-8.533,34.133c-8.533,17.067-17.92,34.133-51.2,34.133s-42.667-17.067-51.2-34.133
		c0,0-8.533-17.067-8.533-34.133c-5.12,0-8.533-4.267-8.533-8.533V75.751c0-4.267,3.413-8.533,8.533-8.533v-8.533
		c0-23.893,18.773-42.667,42.667-42.667h34.133c23.893,0,42.667,18.773,42.667,42.667v8.533
		C477.72,67.218,481.133,71.484,481.133,75.751z"/>
	<path style="fill:#80D6FA;" d="M156.867,476.818l-51.2-17.067v-51.2v-85.333c0-0.853,0-1.707,0-3.413l0.853-3.413
		c5.12-29.867,46.08-44.373,101.547-44.373l0.853,8.533l29.013,196.267H156.867z M38.253,212.284l29.013,196.267h-64v-202.24
		c10.24-1.707,22.187-2.56,34.133-2.56L38.253,212.284z M344.6,476.818h-81.067l29.013-196.267l0.853-8.533
		c55.467,0,96.427,14.507,101.547,44.373l0.853,3.413c0,0.853,0,1.707,0,3.413v85.333v51.2L344.6,476.818z M498.2,206.311v202.24
		h-64l29.013-196.267l0.853-8.533C476.013,203.751,487.96,204.604,498.2,206.311z"/>
	<path style="fill:#AAB1BA;" d="M421.4,220.818c5.12,0,8.533-4.267,8.533-8.533h33.28L434.2,408.551h-25.6l-12.8-88.747
		l-0.853-3.413l-15.36-104.107h33.28C412.867,216.551,416.28,220.818,421.4,220.818z M80.067,220.818
		c4.267,0,8.533-4.267,8.533-8.533h33.28l-15.36,104.107l-0.853,3.413l-12.8,88.747h-25.6L38.253,212.284h33.28
		C71.533,216.551,75.8,220.818,80.067,220.818z M250.733,289.084c5.12,0,8.533-4.267,8.533-8.533h33.28l-29.013,196.267h-25.6
		L208.92,280.551h33.28C242.2,284.818,245.613,289.084,250.733,289.084z"/>
</g>
<path style="fill:#51565F;" d="M157.867,486.084c-2.56,0-4.267-1.707-4.267-4.267v-102.4c0-2.56,1.707-4.267,4.267-4.267
	c2.56,0,4.267,1.707,4.267,4.267v102.4C162.133,484.378,160.427,486.084,157.867,486.084z M345.6,486.084L345.6,486.084
	c-2.56,0-4.267-1.707-4.267-4.267l0,0l0.853-102.4c0-2.56,1.707-4.267,4.267-4.267c1.707,0,4.267,1.707,4.267,4.267l0,0
	l-0.853,102.4C349.867,484.378,348.16,486.084,345.6,486.084z M268.8,469.018C268.8,469.018,267.947,469.018,268.8,469.018
	c-2.56,0-4.267-2.56-4.267-5.12l25.6-187.733c0-2.56,2.56-3.413,5.12-3.413c43.52,0,76.8,9.387,93.867,25.6
	c8.533,8.533,12.8,17.92,12.8,29.867v136.533c0,2.56-1.707,4.267-4.267,4.267s-4.267-1.707-4.267-4.267V328.218
	c0-9.387-3.413-17.067-10.24-23.893c-14.507-14.507-44.373-23.04-84.48-23.04l-24.747,184.32
	C272.213,467.311,270.507,469.018,268.8,469.018z M234.667,469.018c-1.707,0-4.267-1.707-4.267-3.413l-24.747-184.32
	c-40.107,0-69.973,8.533-84.48,23.04c-6.827,6.827-10.24,14.507-10.24,23.893v136.533c0,2.56-1.707,4.267-4.267,4.267
	s-4.267-1.707-4.267-4.267V328.218c0-11.093,4.267-21.333,12.8-29.867c17.067-17.067,50.347-26.453,93.867-25.6
	c1.707,0,4.267,1.707,4.267,3.413l25.6,187.733C238.933,466.458,237.227,469.018,234.667,469.018L234.667,469.018z M64,366.618
	c-1.707,0-4.267-1.707-4.267-3.413L34.987,213.018c-10.24,0-20.48,0.853-29.867,1.707c-2.56,0-4.267-1.707-5.12-3.413
	c0-2.56,1.707-4.267,3.413-5.12c10.24-1.707,22.187-2.56,34.133-1.707c1.707,0,4.267,1.707,4.267,3.413l25.6,153.6
	C68.267,364.058,66.56,365.764,64,366.618L64,366.618z M439.467,366.618C439.467,366.618,438.613,366.618,439.467,366.618
	c-3.413-0.853-4.267-2.56-4.267-5.12l25.6-153.6c0-2.56,2.56-3.413,4.267-3.413c11.947,0,23.893,0.853,34.133,1.707
	c2.56,0,4.267,2.56,3.413,5.12s-2.56,4.267-5.12,3.413c-9.387-0.853-19.627-1.707-29.867-1.707L442.88,363.204
	C442.88,364.911,441.173,366.618,439.467,366.618z M251.733,366.618c-2.56,0-4.267-1.707-4.267-4.267v-64.853
	c-5.12-1.707-8.533-6.827-8.533-11.947c0-6.827,5.973-12.8,12.8-12.8c6.827,0,12.8,5.973,12.8,12.8
	c0,5.973-3.413,10.24-8.533,11.947v64.853C256,364.911,254.293,366.618,251.733,366.618z M251.733,281.284
	c-2.56,0-4.267,1.707-4.267,4.267s1.707,4.267,4.267,4.267c2.56,0,4.267-1.707,4.267-4.267S254.293,281.284,251.733,281.284z
	 M422.4,298.351c-2.56,0-4.267-1.707-4.267-4.267v-64.853c-5.12-1.707-8.533-6.827-8.533-11.947c0-6.827,5.973-12.8,12.8-12.8
	s12.8,5.973,12.8,12.8c0,5.973-3.413,10.24-8.533,11.947v64.853C426.667,296.644,424.96,298.351,422.4,298.351z M422.4,213.018
	c-2.56,0-4.267,1.707-4.267,4.267c0,2.56,1.707,4.267,4.267,4.267s4.267-1.707,4.267-4.267
	C426.667,214.724,424.96,213.018,422.4,213.018z M81.067,298.351c-2.56,0-4.267-1.707-4.267-4.267v-64.853
	c-5.12-1.707-8.533-6.827-8.533-11.947c0-6.827,5.973-12.8,12.8-12.8c6.827,0,12.8,5.973,12.8,12.8
	c0,5.973-3.413,10.24-8.533,11.947v64.853C85.333,296.644,83.627,298.351,81.067,298.351z M81.067,213.018
	c-2.56,0-4.267,1.707-4.267,4.267c0,2.56,1.707,4.267,4.267,4.267c2.56,0,4.267-1.707,4.267-4.267
	C85.333,214.724,83.627,213.018,81.067,213.018z M386.56,255.684c-1.707,0-4.267-1.707-4.267-3.413l-6.827-39.253
	c-13.653,0-26.453,0.853-38.4,3.413c-2.56,0-4.267-0.853-5.12-3.413c0-2.56,0.853-4.267,3.413-5.12
	c12.8-2.56,27.307-3.413,43.52-3.413c1.707,0,4.267,1.707,4.267,3.413l6.827,42.667C390.827,253.124,389.973,254.831,386.56,255.684
	C387.413,255.684,386.56,255.684,386.56,255.684z M116.053,255.684L116.053,255.684c-3.413-0.853-4.267-2.56-4.267-5.12
	l6.827-42.667c0-2.56,2.56-3.413,5.12-3.413c15.36,0,29.867,0.853,42.667,3.413c2.56,0,4.267,2.56,3.413,5.12
	c0,2.56-2.56,4.267-5.12,3.413c-11.093-1.707-24.747-3.413-38.4-3.413l-6.827,39.253
	C120.32,253.978,118.613,255.684,116.053,255.684z M251.733,247.151c-36.693,0-46.933-21.333-54.613-36.693
	c0-0.853-7.68-16.213-8.533-32.427c-5.12-1.707-8.533-6.827-8.533-11.947v-17.067c0-5.973,3.413-10.24,8.533-11.947v-5.12
	c0-25.6,21.333-46.933,46.933-46.933h34.133c25.6,0,46.933,21.333,46.933,46.933v5.12c5.12,1.707,8.533,6.827,8.533,11.947v17.067
	c0,5.973-3.413,10.24-8.533,11.947c-0.853,16.213-8.533,31.573-8.533,32.427C298.667,225.818,288.427,247.151,251.733,247.151z
	 M234.667,93.551c-21.333,0-38.4,17.067-38.4,38.4v8.533c0,2.56-1.707,4.267-4.267,4.267s-4.267,1.707-4.267,4.267v17.067
	c0,2.56,1.707,4.267,4.267,4.267s4.267,1.707,4.267,4.267c0,16.213,7.68,32.427,7.68,32.427
	c9.387,18.773,17.92,31.573,47.787,31.573s38.4-12.8,47.787-31.573c0,0,7.68-16.213,7.68-32.427c0-2.56,1.707-4.267,4.267-4.267
	s4.267-1.707,4.267-4.267v-17.067c0-2.56-1.707-4.267-4.267-4.267s-4.267-1.707-4.267-4.267v-8.533c0-21.333-17.067-38.4-38.4-38.4
	H234.667z M413.867,178.884c-36.693,0-46.933-21.333-54.613-36.693c0-0.853-7.68-16.213-8.533-32.427
	c-5.12-1.707-8.533-6.827-8.533-11.947V80.751c0-5.973,3.413-10.24,8.533-11.947v-5.12c0-25.6,21.333-46.933,46.933-46.933h34.133
	c25.6,0,46.933,21.333,46.933,46.933v5.12c5.12,1.707,8.533,6.827,8.533,11.947v17.067c0,5.973-3.413,10.24-8.533,11.947
	c-0.853,16.213-8.533,31.573-8.533,32.427C460.8,157.551,450.56,178.884,413.867,178.884z M396.8,25.284
	c-21.333,0-38.4,17.067-38.4,38.4v8.533c0,2.56-1.707,4.267-4.267,4.267s-4.267,1.707-4.267,4.267v17.067
	c0,2.56,1.707,4.267,4.267,4.267s4.267,1.707,4.267,4.267c0,16.213,7.68,32.427,7.68,32.427
	c9.387,18.773,17.92,31.573,47.787,31.573s38.4-12.8,47.787-31.573c0,0,7.68-16.213,7.68-32.427c0-2.56,1.707-4.267,4.267-4.267
	s4.267-1.707,4.267-4.267V80.751c0-2.56-1.707-4.267-4.267-4.267s-4.267-1.707-4.267-4.267v-8.533c0-21.333-17.067-38.4-38.4-38.4
	H396.8z M81.067,178.884c-36.693,0-46.933-21.333-54.613-36.693c0-0.853-7.68-16.213-8.533-32.427
	c-5.12-1.707-8.533-6.827-8.533-11.947V80.751c0-5.973,3.413-10.24,8.533-11.947v-5.12c0-25.6,21.333-46.933,46.933-46.933h34.133
	c25.6,0,46.933,21.333,46.933,46.933v5.12c5.12,1.707,8.533,6.827,8.533,11.947v17.067c0,5.973-3.413,10.24-8.533,11.947
	c-0.853,16.213-8.533,31.573-8.533,32.427C128,157.551,117.76,178.884,81.067,178.884z M64,25.284c-21.333,0-38.4,17.067-38.4,38.4
	v8.533c0,2.56-1.707,4.267-4.267,4.267s-4.267,1.707-4.267,4.267v17.067c0,2.56,1.707,4.267,4.267,4.267s4.267,1.707,4.267,4.267
	c0,16.213,7.68,32.427,7.68,32.427c9.387,18.773,17.92,31.573,47.787,31.573s38.4-12.8,47.787-31.573c0,0,7.68-16.213,7.68-32.427
	c0-2.56,1.707-4.267,4.267-4.267c2.56,0,4.267-1.707,4.267-4.267V80.751c0-2.56-1.707-4.267-4.267-4.267
	c-2.56,0-4.267-1.707-4.267-4.267v-8.533c0-21.333-17.067-38.4-38.4-38.4H64z M277.333,161.818H268.8
	c-2.56,0-4.267-1.707-4.267-4.267c0-2.56,1.707-4.267,4.267-4.267h8.533c2.56,0,4.267,1.707,4.267,4.267
	C281.6,160.111,279.893,161.818,277.333,161.818z M234.667,161.818h-8.533c-2.56,0-4.267-1.707-4.267-4.267
	c0-2.56,1.707-4.267,4.267-4.267h8.533c2.56,0,4.267,1.707,4.267,4.267C238.933,160.111,237.227,161.818,234.667,161.818z
	 M439.467,93.551h-8.533c-2.56,0-4.267-1.707-4.267-4.267c0-2.56,1.707-4.267,4.267-4.267h8.533c2.56,0,4.267,1.707,4.267,4.267
	C443.733,91.844,442.027,93.551,439.467,93.551z M396.8,93.551h-8.533c-2.56,0-4.267-1.707-4.267-4.267
	c0-2.56,1.707-4.267,4.267-4.267h8.533c2.56,0,4.267,1.707,4.267,4.267C401.067,91.844,399.36,93.551,396.8,93.551z M106.667,93.551
	h-8.533c-2.56,0-4.267-1.707-4.267-4.267c0-2.56,1.707-4.267,4.267-4.267h8.533c2.56,0,4.267,1.707,4.267,4.267
	C110.933,91.844,109.227,93.551,106.667,93.551z M64,93.551h-8.533c-2.56,0-4.267-1.707-4.267-4.267c0-2.56,1.707-4.267,4.267-4.267
	H64c2.56,0,4.267,1.707,4.267,4.267C68.267,91.844,66.56,93.551,64,93.551z"/>
</svg>