<?xml version="1.0" encoding="utf-8"?><!-- Uploaded to: SVG Repo, www.svgrepo.com, Generator: SVG Repo Mixer Tools -->
<svg fill="#000000" width="800px" height="800px" viewBox="0 0 24 24" id="upload-alt-2" data-name="Flat Line" xmlns="http://www.w3.org/2000/svg" class="icon flat-line"><path id="secondary" d="M17,8a4.17,4.17,0,0,0-1.13.18A6.5,6.5,0,1,0,9,16v0h8a4,4,0,0,0,0-8Z" style="fill: rgb(44, 169, 188); stroke-width: 2;"></path><line id="primary" x1="12" y1="21.18" x2="12" y2="12.18" style="fill: none; stroke: rgb(0, 0, 0); stroke-linecap: round; stroke-linejoin: round; stroke-width: 2;"></line><polyline id="primary-2" data-name="primary" points="15.02 15.04 11.98 12 8.79 15.18" style="fill: none; stroke: rgb(0, 0, 0); stroke-linecap: round; stroke-linejoin: round; stroke-width: 2;"></polyline><path id="primary-3" data-name="primary" d="M6,15.11A6.59,6.59,0,1,1,16,7.87a4.58,4.58,0,0,1,.83-.08A4.19,4.19,0,0,1,18,16" style="fill: none; stroke: rgb(0, 0, 0); stroke-linecap: round; stroke-linejoin: round; stroke-width: 2;"></path></svg>