<?xml version="1.0" encoding="UTF-8"?>
<svg xmlns="http://www.w3.org/2000/svg" xmlns:xlink="http://www.w3.org/1999/xlink" width="50px" height="50px" viewBox="0 0 50 50" version="1.1">
<g id="surface1">
<path style=" stroke:none;fill-rule:nonzero;fill:rgb(17.254902%,66.27451%,73.72549%);fill-opacity:1;" d="M 25 18.75 C 18.097656 18.75 12.5 24.347656 12.5 31.25 C 12.5 38.152344 18.097656 43.75 25 43.75 C 31.902344 43.75 37.5 38.152344 37.5 31.25 C 37.5 24.347656 31.902344 18.75 25 18.75 Z M 23.957031 33.332031 C 22.234375 33.332031 20.832031 31.933594 20.832031 30.207031 C 20.832031 28.484375 22.234375 27.082031 23.957031 27.082031 C 25.683594 27.082031 27.082031 28.484375 27.082031 30.207031 C 27.082031 31.933594 25.683594 33.332031 23.957031 33.332031 Z M 23.957031 33.332031 "/>
<path style="fill:none;stroke-width:2;stroke-linecap:round;stroke-linejoin:round;stroke:rgb(0%,0%,0%);stroke-opacity:1;stroke-miterlimit:4;" d="M 7.539375 18.999375 L 3.999375 18.999375 C 3.448125 18.999375 3 18.553125 3 18 L 3 5.000625 C 3 4.4475 3.448125 3.999375 3.999375 3.999375 L 20.000625 3.999375 C 20.551875 3.999375 21 4.4475 21 5.000625 L 21 18 C 21 18.553125 20.551875 18.999375 20.000625 18.999375 L 16.460625 18.999375 " transform="matrix(2.083333,0,0,2.083333,0,0)"/>
<path style="fill:none;stroke-width:2;stroke-linecap:round;stroke-linejoin:round;stroke:rgb(0%,0%,0%);stroke-opacity:1;stroke-miterlimit:4;" d="M 12 9 C 8.686875 9 6 11.686875 6 15 C 6 18.313125 8.686875 21 12 21 C 15.313125 21 18 18.313125 18 15 C 18 11.686875 15.313125 9 12 9 Z M 3 9 L 21 9 M 12.999375 14.499375 C 12.999375 15.328125 12.328125 15.999375 11.499375 15.999375 C 10.6725 15.999375 9.999375 15.328125 9.999375 14.499375 C 9.999375 13.6725 10.6725 12.999375 11.499375 12.999375 C 12.328125 12.999375 12.999375 13.6725 12.999375 14.499375 Z M 15.999375 3 L 15.999375 6 M 8.000625 3 L 8.000625 6 M 14.000625 17.000625 L 12.560625 15.560625 " transform="matrix(2.083333,0,0,2.083333,0,0)"/>
</g>
</svg>
